<?xml version="1.0" encoding="UTF-8" standalone="no"?>
<!DOCTYPE svg PUBLIC "-//W3C//DTD SVG 1.1//EN" "http://www.w3.org/Graphics/SVG/1.1/DTD/svg11.dtd">
<svg width="100%" height="100%" viewBox="0 0 512 512" version="1.1" xmlns="http://www.w3.org/2000/svg" xmlns:xlink="http://www.w3.org/1999/xlink" xml:space="preserve" xmlns:serif="http://www.serif.com/" style="fill-rule:evenodd;clip-rule:evenodd;stroke-linecap:round;stroke-linejoin:round;stroke-miterlimit:1.5;">
    <rect id="steven-logo" x="0" y="0" width="512" height="512" style="fill:none;"/>
    <g id="steven-logo1" serif:id="steven-logo">
        <g transform="matrix(1.23374,0.671927,-0.674569,1.23859,51.354,-272.697)">
            <path d="M356.298,169.952C356.298,146.306 337.025,127.108 313.286,127.108L227.263,127.108C203.524,127.108 184.251,146.306 184.251,169.952L184.251,304.748C184.251,328.394 203.524,347.591 227.263,347.591L313.286,347.591C337.025,347.591 356.298,328.394 356.298,304.748L356.298,169.952Z" style="fill:rgb(0,184,255);"/>
        </g>
        <g transform="matrix(1.23374,0.671927,-0.669858,1.22994,112.927,-164.472)">
            <path d="M356.298,170.253C356.298,146.441 337.025,127.108 313.286,127.108L227.263,127.108C203.524,127.108 184.251,146.441 184.251,170.253L184.251,304.446C184.251,328.259 203.524,347.591 227.263,347.591L313.286,347.591C337.025,347.591 356.298,328.259 356.298,304.446L356.298,170.253Z" style="fill:rgb(0,184,255);"/>
        </g>
        <g transform="matrix(1.09035,0.593835,-0.593835,1.09035,74.2868,-209.683)">
            <path d="M356.298,170.12C356.298,146.381 337.025,127.108 313.286,127.108L227.263,127.108C203.524,127.108 184.251,146.381 184.251,170.12L184.251,304.579C184.251,328.318 203.524,347.591 227.263,347.591L313.286,347.591C337.025,347.591 356.298,328.318 356.298,304.579L356.298,170.12Z" style="fill:rgb(30,30,30);"/>
        </g>
        <g transform="matrix(1.09035,0.593835,-0.593835,1.09035,130.295,-116.958)">
            <path d="M356.298,170.12C356.298,146.381 337.025,127.108 313.286,127.108L227.263,127.108C203.524,127.108 184.251,146.381 184.251,170.12L184.251,304.579C184.251,328.318 203.524,347.591 227.263,347.591L313.286,347.591C337.025,347.591 356.298,328.318 356.298,304.579L356.298,170.12Z" style="fill:rgb(30,30,30);"/>
        </g>
        <g transform="matrix(-0.594699,-0.327844,0.327844,-0.594699,366.635,544.83)">
            <path d="M356.298,171.119L302.599,171.119C278.86,171.119 259.587,190.392 259.587,214.131L259.587,347.591L227.263,347.591C203.524,347.591 184.251,328.318 184.251,304.579L184.251,170.12C184.251,146.381 203.524,127.108 227.263,127.108L313.286,127.108C337.025,127.108 356.298,146.381 356.298,170.12L356.298,171.119Z" style="fill:none;stroke:white;stroke-width:9.2px;"/>
        </g>
        <g transform="matrix(0.595179,0.324151,-0.324151,0.595179,138.054,-42.5083)">
            <path d="M356.298,171.119L302.599,171.119C278.86,171.119 259.587,190.392 259.587,214.131L259.587,347.591L227.263,347.591C203.524,347.591 184.251,328.318 184.251,304.579L184.251,170.12C184.251,146.381 203.524,127.108 227.263,127.108L313.286,127.108C337.025,127.108 356.298,146.381 356.298,170.12L356.298,171.119Z" style="fill:none;stroke:white;stroke-width:9.22px;"/>
        </g>
    </g>
</svg>
