<?xml version="1.0" encoding="UTF-8" standalone="no"?>
<!DOCTYPE svg PUBLIC "-//W3C//DTD SVG 1.1//EN" "http://www.w3.org/Graphics/SVG/1.1/DTD/svg11.dtd">
<svg width="100%" height="100%" viewBox="0 0 16 16" version="1.1" xmlns="http://www.w3.org/2000/svg" xmlns:xlink="http://www.w3.org/1999/xlink" xml:space="preserve" xmlns:serif="http://www.serif.com/" style="fill-rule:evenodd;clip-rule:evenodd;stroke-linecap:round;stroke-linejoin:round;stroke-miterlimit:1.5;">
    <g transform="matrix(1,0,0,1,-514.737,0)">
        <g id="favicon" transform="matrix(0.03125,0,0,0.03125,514.737,0)">
            <rect x="0" y="0" width="512" height="512" style="fill:none;"/>
            <g transform="matrix(1.90897,0,0,1.90897,-232.273,-231.732)">
                <g transform="matrix(0.719075,0.391628,-0.393168,0.721902,136.631,-52.358)">
                    <path d="M356.298,169.952C356.298,146.306 337.025,127.108 313.286,127.108L227.263,127.108C203.524,127.108 184.251,146.306 184.251,169.952L184.251,304.748C184.251,328.394 203.524,347.591 227.263,347.591L313.286,347.591C337.025,347.591 356.298,328.394 356.298,304.748L356.298,169.952Z" style="fill:rgb(0,184,255);"/>
                </g>
                <g transform="matrix(0.719075,0.391628,-0.390422,0.716861,172.518,10.7202)">
                    <path d="M356.298,170.253C356.298,146.441 337.025,127.108 313.286,127.108L227.263,127.108C203.524,127.108 184.251,146.441 184.251,170.253L184.251,304.446C184.251,328.259 203.524,347.591 227.263,347.591L313.286,347.591C337.025,347.591 356.298,328.259 356.298,304.446L356.298,170.253Z" style="fill:rgb(0,184,255);"/>
                </g>
                <g transform="matrix(0.635504,0.346113,-0.346113,0.635504,149.997,-15.631)">
                    <path d="M356.298,170.12C356.298,146.381 337.025,127.108 313.286,127.108L227.263,127.108C203.524,127.108 184.251,146.381 184.251,170.12L184.251,304.579C184.251,328.318 203.524,347.591 227.263,347.591L313.286,347.591C337.025,347.591 356.298,328.318 356.298,304.579L356.298,170.12Z" style="fill:rgb(30,30,30);"/>
                </g>
                <g transform="matrix(0.635504,0.346113,-0.346113,0.635504,182.641,38.4131)">
                    <path d="M356.298,170.12C356.298,146.381 337.025,127.108 313.286,127.108L227.263,127.108C203.524,127.108 184.251,146.381 184.251,170.12L184.251,304.579C184.251,328.318 203.524,347.591 227.263,347.591L313.286,347.591C337.025,347.591 356.298,328.318 356.298,304.579L356.298,170.12Z" style="fill:rgb(30,30,30);"/>
                </g>
                <g transform="matrix(-0.346616,-0.191082,0.191082,-0.346616,320.391,424.132)">
                    <path d="M356.298,171.119L302.599,171.119C278.86,171.119 259.587,190.392 259.587,214.131L259.587,347.591L227.263,347.591C203.524,347.591 184.251,328.318 184.251,304.579L184.251,170.12C184.251,146.381 203.524,127.108 227.263,127.108L313.286,127.108C337.025,127.108 356.298,146.381 356.298,170.12L356.298,171.119Z" style="fill:none;stroke:white;stroke-width:17.65px;"/>
                </g>
                <g transform="matrix(0.346896,0.188929,-0.188929,0.346896,187.163,81.8058)">
                    <path d="M356.298,171.119L302.599,171.119C278.86,171.119 259.587,190.392 259.587,214.131L259.587,347.591L227.263,347.591C203.524,347.591 184.251,328.318 184.251,304.579L184.251,170.12C184.251,146.381 203.524,127.108 227.263,127.108L313.286,127.108C337.025,127.108 356.298,146.381 356.298,170.12L356.298,171.119Z" style="fill:none;stroke:white;stroke-width:17.68px;"/>
                </g>
            </g>
        </g>
    </g>
</svg>
